<svg version="1.1" id="Layer_1" xmlns="http://www.w3.org/2000/svg" x="0" y="0" viewBox="0 0 177 120" xml:space="preserve"><path fill="#FFF" d="M4.6 0l23.3 120h120.3L172.4 0z"/><g fill="#00164E"><path d="M130.8 77.3l-2.1 4.4c-.6 1.3-1.1 2.3-1.5 3.4-.5-1.2-.9-2.2-1.5-3.4l-2.1-4.4H120l5.5 10.1v7.2h3.2v-7.3l5.8-10h-3.7zm-25.6 2.6h4.9v14.7h3.2V79.9h5v-2.6h-13.1zm-5.1 6.4c1.6-.6 3.2-2.1 3.2-4.3 0-1.5-.5-2.7-1.5-3.5-1.2-1-2.9-1.4-5.3-1.4-1.8 0-3.6.2-4.8.4v17h3.1v-7.1h1.6c1.8.1 2.6.8 3.1 3s.9 3.6 1.2 4.1h3.2c-.3-.7-.8-2.7-1.4-4.8-.4-1.6-1.2-2.8-2.4-3.4zm-3.5-1.1h-1.9v-5.5c.3-.1 1-.2 1.9-.2 2.1 0 3.4.9 3.4 2.8.1 1.7-1.2 2.9-3.4 2.9zm-15.5 1.7h6.5v-2.6h-6.5v-4.4H88v-2.6H77.9v17.3h10.5V92h-7.3zm-9.6-1.7c1.9-.7 2.9-2.1 2.9-3.7 0-1.5-.7-2.6-1.8-3.3-1.2-.8-2.6-1.1-4.9-1.1-1.8 0-3.6.2-4.6.4v17c.8.1 2.1.2 3.9.2 3.2 0 5.2-.5 6.4-1.6 1-.9 1.6-2.1 1.6-3.6 0-2.3-1.6-3.7-3.5-4.3zm-5.3-5.6c.3-.1.9-.1 1.8-.1 2 0 3.2.7 3.2 2.4 0 1.5-1.2 2.5-3.4 2.5h-1.6v-4.8zm1.7 12.8c-.7 0-1.3 0-1.7-.1v-5.7h1.6c2.2 0 4 .8 4 2.8-.1 2.2-1.9 3-3.9 3zM56.1 77.3h3.2v17.3h-3.2zm-10.3 0h-3.2v17.3h10.3v-2.7h-7.1zm64.3-30.4c0-11.9-9.7-21.6-21.6-21.6-12 0-21.6 9.7-21.6 21.6 0 12 9.7 21.6 21.6 21.6 11.9 0 21.6-9.7 21.6-21.6zM88.5 65.7c-10.4 0-18.9-8.4-18.9-18.9 0-10.4 8.4-18.9 18.9-18.9 10.4 0 18.9 8.4 18.9 18.9 0 10.5-8.5 18.9-18.9 18.9z"/><path d="M97.9 43.9c3.5-5.4-2-9.1-3.5-10.1h-.1c-.1 0-.2.1-.2.2 1.6 7-4.3 6.5-4.9 12.3-2.4-3.3.1-5.3.8-7.8 1.2-4.1-2.3-7.2-3.5-7.8h-.1c-.1 0-.2.1-.2.2v.1c1.1 4.3-2.4 6.6-4.2 9.4-2.2 3.6-1.1 8.1-1.1 8.1-1.7-1.1-3.1-4.2-3.1-6.3 0-2.6.9-4.5 1.5-5.6v-.1c0-.1-.1-.2-.2-.2s-.1 0-.2.1c-2.9 2.7-4.7 6.6-4.7 10.9 0 2.2.5 4.3 1.3 6.2.4.7.8 1.4 1.2 2.2h22.4c-1.8-2.2-4.8-6.2-1.2-11.8zM82 60.4h13.5c1.4-.7 2.6-1.7 3.6-2.8H78.3c1.1 1.1 2.3 2.1 3.7 2.8z"/><path d="M102.3 42.4s0-.1 0 0c0-.2-.1-.3-.2-.3h-.1c-4.6 2.8-5.1 9.5-.9 12.8 4.1-6.8-1.2-6.8 1.2-12.5z"/></g></svg>